<svg width="64" height="63" viewBox="0 0 64 63" fill="none" xmlns="http://www.w3.org/2000/svg">
<path d="M62.5501 0H1.44993C1.06539 0 0.69659 0.154063 0.424675 0.428298C0.15276 0.702532 0 1.07447 0 1.4623V12.6245V23.777C0 23.969 0.0375035 24.1592 0.110369 24.3366C0.183235 24.514 0.290036 24.6752 0.424675 24.811C0.559314 24.9468 0.719153 25.0545 0.895067 25.128C1.07098 25.2015 1.25952 25.2393 1.44993 25.2393H7.07567V25.5415C7.09575 25.6468 7.12157 25.751 7.153 25.8534C7.19375 26.0481 7.25533 26.2376 7.33666 26.4189C7.45313 26.7262 7.59542 27.023 7.76197 27.306C7.01338 27.4474 6.31144 27.7744 5.71935 28.2575C5.12727 28.7407 4.66364 29.3647 4.37024 30.0735C4.07684 30.7824 3.96288 31.5536 4.03862 32.3179C4.11436 33.0822 4.37742 33.8155 4.80411 34.4518C4.95477 34.6734 5.11944 34.8851 5.29708 35.0854L5.70307 35.5339L6.50536 36.4405C10.8358 41.2076 15.118 46.0234 20.1444 50.1763C20.1991 50.2167 20.2651 50.2385 20.3329 50.2385C20.4007 50.2385 20.4667 50.2167 20.5214 50.1763C20.5561 50.1537 20.586 50.1243 20.6092 50.0898C20.6325 50.0553 20.6487 50.0164 20.6568 49.9755C20.6649 49.9346 20.6648 49.8925 20.6565 49.8517C20.6481 49.8108 20.6318 49.772 20.6084 49.7377C16.9124 44.4321 12.8659 39.3838 8.4966 34.6272L7.69431 33.7206L7.29799 33.2624C7.20379 33.1674 7.11956 33.0629 7.04667 32.9505C6.77721 32.5472 6.66689 32.057 6.73735 31.5759C6.80394 31.0825 7.04906 30.6314 7.42556 30.3092C7.80207 29.9871 8.28338 29.8167 8.77692 29.8309C9.20405 29.8315 9.6201 29.9679 9.96587 30.2208C10.1592 30.4451 10.3428 30.679 10.5362 30.8935C10.9228 31.3224 11.2998 31.7221 11.7155 32.1511L12.9044 33.3209L15.2823 35.6606L24.7745 45.0096C24.9093 45.09 25.0668 45.1229 25.2222 45.1031C25.3776 45.0834 25.522 45.012 25.6328 44.9003C25.7436 44.7886 25.8143 44.6429 25.8339 44.4862C25.8535 44.3295 25.8209 44.1706 25.7411 44.0347L16.7902 34.1593L14.7603 31.9756L13.4457 30.4548L12.6434 29.4897L12.2568 29.051L12.1891 28.973C11.6053 28.2466 11.0662 27.4848 10.5748 26.6918C10.3389 26.3028 10.1414 25.8914 9.9852 25.4635C9.95854 25.3982 9.94223 25.3291 9.93687 25.2588H14.828L20.1154 31.0007C20.1603 31.1297 20.2292 31.2488 20.3184 31.3517L29.018 40.6422C29.1991 40.8237 29.4441 40.9256 29.6994 40.9256C29.9548 40.9256 30.1998 40.8237 30.3809 40.6422C30.4715 40.5515 30.5434 40.4437 30.5925 40.3249C30.6416 40.2061 30.6668 40.0787 30.6668 39.95C30.6668 39.8213 30.6416 39.6939 30.5925 39.5751C30.5434 39.4563 30.4715 39.3485 30.3809 39.2578L25.6638 34.1983C25.6387 34.1421 25.6062 34.0897 25.5671 34.0423L17.4765 25.2393H23.9529L33.8027 36.109C33.8931 36.21 34.0035 36.2908 34.1266 36.3462C34.2498 36.4016 34.3832 36.4304 34.5181 36.4307C34.7601 36.428 34.9932 36.3381 35.1754 36.1773C35.2699 36.0906 35.3464 35.9858 35.4005 35.8691C35.4546 35.7524 35.4852 35.626 35.4906 35.4973C35.496 35.3686 35.4761 35.2401 35.4319 35.1192C35.3877 34.9983 35.3203 34.8874 35.2333 34.793L26.5338 25.2393H32.5558L42.8987 35.8751H42.947L42.3284 36.4697C41.9009 36.9176 41.5068 37.3966 41.1491 37.9028C40.4443 38.9031 39.8511 39.9787 39.3802 41.1101C38.9118 42.2271 38.587 43.4 38.4135 44.6001C38.3265 45.1948 38.3265 45.7992 38.2975 46.3939C38.2685 46.9885 38.3652 47.5832 38.4522 48.1681C38.4599 48.2262 38.4866 48.2799 38.528 48.321C38.5695 48.362 38.6233 48.3879 38.681 48.3946C38.7386 48.4013 38.7969 48.3884 38.8465 48.358C38.8961 48.3276 38.9342 48.2813 38.9548 48.2266C39.1578 47.6709 39.2932 47.1153 39.4575 46.5791C39.6218 46.0429 39.7765 45.497 39.9601 44.9706C40.1438 44.4441 40.2791 43.9177 40.5014 43.4108C40.7238 42.9038 40.8881 42.4359 41.1007 41.8997C41.5306 40.9148 42.0653 39.9799 42.6957 39.1116C43.0085 38.6848 43.3509 38.2808 43.7203 37.9028C44.0562 37.5434 44.4251 37.217 44.8222 36.9279L44.9962 36.7817C47.1808 34.4713 49.5007 32.1316 51.5306 29.8016C52.4634 28.7191 53.6002 27.8343 54.8751 27.1988C55.0957 27.1009 55.3363 27.0578 55.5768 27.0731C55.8173 27.0884 56.0507 27.1615 56.2574 27.2865C56.7223 27.5453 57.0774 27.9668 57.2554 28.4714C57.4335 28.9761 57.4223 29.529 57.224 30.0259L56.2574 32.1023L55.2134 34.2763C54.8359 35.0418 54.5129 35.8335 54.2468 36.6452C53.7166 38.2822 53.4427 39.9925 53.4348 41.7145V46.5108C53.4152 49.5132 52.473 52.4355 50.738 54.8752C48.9182 57.2663 46.4505 59.0745 43.6333 60.081C40.8181 61.0777 37.778 61.2368 34.8757 60.5392C33.4192 60.1665 32.0088 59.6302 30.6709 58.9404C29.3206 58.2132 28.028 57.3821 26.8044 56.4545C26.743 56.4106 26.6681 56.3901 26.5931 56.3965C26.5181 56.403 26.4478 56.4359 26.3946 56.4896C26.3414 56.5433 26.3087 56.6142 26.3023 56.6898C26.2959 56.7655 26.3163 56.841 26.3598 56.9029C27.2962 58.2876 28.4833 59.4816 29.8589 60.4222C31.2674 61.3522 32.8189 62.0407 34.4504 62.4597C37.7379 63.2974 41.1955 63.1586 44.4066 62.06C47.6319 60.9566 50.4652 58.9228 52.5552 56.2108C54.5832 53.4189 55.6981 50.0591 55.7451 46.5986V41.773C55.777 40.2864 56.0212 38.8122 56.47 37.3959C56.6934 36.6816 56.9746 35.9871 57.311 35.3194L58.3356 33.1649L59.3892 30.9032C59.7898 29.8961 59.8104 28.7759 59.4472 27.7544C59.0931 26.7269 58.3731 25.8688 57.427 25.3465L57.224 25.2393H62.4921C62.8766 25.2393 63.2454 25.0852 63.5173 24.811C63.7892 24.5367 63.942 24.1648 63.942 23.777V12.995C63.9808 12.8687 64.0003 12.7372 64 12.605V1.4623C64 1.27027 63.9625 1.08012 63.8896 0.902701C63.8168 0.725287 63.71 0.564085 63.5753 0.428298C63.4407 0.292511 63.2809 0.184799 63.1049 0.111311C62.929 0.0378238 62.7405 0 62.5501 0ZM34.9434 2.9246C34.694 3.56102 34.2606 4.1071 33.6995 4.49191C33.1384 4.87673 32.4755 5.0825 31.797 5.0825C31.1185 5.0825 30.4556 4.87673 29.8945 4.49191C29.3334 4.1071 28.9001 3.56102 28.6507 2.9246H34.9434ZM9.74354 25.4245C9.80154 25.3758 9.82087 25.2978 9.8692 25.2393C9.84791 25.3129 9.80389 25.3778 9.74354 25.4245ZM51.8786 26.5651C51.2305 27.1072 50.6201 27.6935 50.0517 28.3199C49.491 28.9145 48.9497 29.5482 48.4567 30.1526C47.9638 30.757 47.3838 31.3224 46.8521 31.9074L44.3389 34.6175C44.323 34.5861 44.3035 34.5566 44.2809 34.5297L35.2624 25.2393H53.9375C53.1886 25.5736 52.4944 26.0206 51.8786 26.5651ZM61.0421 22.3147H2.89986V14.0966H26.5338C26.6986 15.3869 27.3238 16.5725 28.2925 17.4317C29.2612 18.2908 30.507 18.7647 31.797 18.7647C33.087 18.7647 34.3328 18.2908 35.3015 17.4317C36.2702 16.5725 36.8954 15.3869 37.0603 14.0966H61.0421V22.3147ZM28.4863 14.0966H35.1077C34.9478 14.8627 34.5316 15.5501 33.9288 16.0434C33.326 16.5368 32.5733 16.806 31.797 16.806C31.0207 16.806 30.268 16.5368 29.6652 16.0434C29.0624 15.5501 28.6462 14.8627 28.4863 14.0966ZM61.1001 11.172H2.89986V2.9246H26.6304C26.9037 4.09972 27.5627 5.1472 28.5006 5.89695C29.4386 6.64669 30.6002 7.05469 31.797 7.05469C32.9938 7.05469 34.1555 6.64669 35.0934 5.89695C36.0313 5.1472 36.6904 4.09972 36.9636 2.9246H61.1291L61.1001 11.172Z" fill="black"/>
</svg>
