<svg width="65" height="58" viewBox="0 0 65 58" fill="none" xmlns="http://www.w3.org/2000/svg">
<path d="M3.83081 28.8068C2.64971 29.9466 1.71041 31.3088 1.06813 32.8134C0.425845 34.3181 0.093535 35.9348 0.0907294 37.5685V53.0639C0.0880747 53.7045 0.213103 54.3394 0.458639 54.932C0.704175 55.5246 1.06538 56.0633 1.52154 56.5172C1.97769 56.9711 2.5198 57.3313 3.11677 57.5771C3.71373 57.8228 4.35379 57.9493 5.00022 57.9493H17.8637C18.142 57.9503 18.4151 57.8741 18.652 57.7293C18.889 57.5846 19.0803 57.377 19.2045 57.1301L23.1361 49.5173C23.2206 49.364 23.3442 49.2354 23.4946 49.1442C23.6449 49.0531 23.8168 49.0026 23.993 48.9978H41.4635C41.6139 49.0358 41.7503 49.1155 41.8567 49.2275C41.9124 49.284 41.9599 49.3479 41.9978 49.4174L42.2599 49.9269L45.8689 57.1001C46.0077 57.3777 46.224 57.61 46.492 57.7694C46.7601 57.9287 47.0686 58.0085 47.3811 57.9993L58.0166 57.9493H59.3473C59.8212 57.9493 60.1337 57.9493 60.8494 57.8894C61.9508 57.755 62.9694 57.241 63.7269 56.4374C64.4843 55.6337 64.9324 54.5916 64.9928 53.4935C65.0024 53.3472 65.0024 53.2003 64.9928 53.0539V52.7242L64.6903 39.5167C64.6903 38.6175 64.6903 37.8183 64.5996 36.8292C64.5113 35.8785 64.3048 34.9423 63.9846 34.0419C63.3404 32.2662 62.2429 30.6863 60.799 29.4562C60.6904 29.3614 60.5506 29.309 60.4059 29.309C60.2611 29.309 60.1213 29.3614 60.0127 29.4562C59.9569 29.5102 59.9126 29.5746 59.8823 29.6458C59.8521 29.717 59.8365 29.7935 59.8365 29.8708C59.8365 29.9481 59.8521 30.0245 59.8823 30.0957C59.9126 30.1669 59.9569 30.2314 60.0127 30.2854C61.1134 31.5115 61.9168 32.9706 62.3616 34.5514C62.5634 35.3419 62.6683 36.1537 62.6741 36.9691C62.6741 37.7284 62.6741 38.6875 62.6741 39.5367L62.3717 52.6943C62.3856 53.0079 62.3481 53.3217 62.2608 53.6234C62.1298 53.9914 61.8929 54.3134 61.5794 54.5495C61.2659 54.7856 60.8895 54.9256 60.4966 54.9522C60.3353 54.9522 59.7506 54.9522 59.3473 54.9522H58.0166L48.4497 54.7823L46.4335 50.9459L45.1834 48.5782L45.0322 48.2784L44.8205 47.9088C44.636 47.5608 44.4017 47.2412 44.1249 46.9597C43.578 46.4605 42.9062 46.1155 42.1793 45.9606C41.9994 45.9242 41.8177 45.8975 41.6349 45.8807H23.9829C23.2476 45.8847 22.5273 46.0878 21.9001 46.4682C21.2729 46.8485 20.7625 47.3916 20.4243 48.0387L16.9362 54.9522H5.00022C4.50198 54.9522 4.02401 54.7567 3.67076 54.4085C3.31751 54.0603 3.11772 53.5877 3.11506 53.0939V37.5685C3.1208 36.3389 3.37333 35.1226 3.85793 33.9906C4.34253 32.8586 5.04953 31.8334 5.93776 30.9748L11.6638 25.4599C11.8395 25.2906 11.9709 25.0814 12.0469 24.8505L12.0973 24.7206C14.0113 26.1433 16.3382 26.9143 18.7307 26.9186H46.5242C49.172 26.9184 51.7323 25.9793 53.7423 24.2711L55.0125 23.1821H63.652C63.9193 23.1821 64.1757 23.0768 64.3648 22.8895C64.5539 22.7021 64.6601 22.448 64.6601 22.183C64.6601 21.9181 64.5539 21.664 64.3648 21.4766C64.1757 21.2892 63.9193 21.184 63.652 21.184H55.2141L53.4297 15.899C52.8913 14.267 51.8454 12.8458 50.4419 11.839C49.0385 10.8322 47.3495 10.2915 45.6169 10.2942H23.9728C23.9728 9.29519 24.0434 8.39604 24.114 7.45692C24.1845 6.21809 24.2954 4.97926 24.3962 3.74043C24.8297 3.67049 25.3136 3.61055 25.7773 3.5606C26.5233 3.47068 27.2794 3.40075 28.0456 3.33081C29.5678 3.19094 31.0699 3.131 32.6325 3.14099C34.195 3.15098 35.6568 3.19095 37.1891 3.37078C38.3979 3.4989 39.5991 3.68898 40.7881 3.94024L41.6046 8.99547C41.6258 9.09113 41.6794 9.17674 41.7564 9.23812C41.8334 9.2995 41.9292 9.33296 42.028 9.33296C42.1269 9.33296 42.2227 9.2995 42.2997 9.23812C42.3767 9.17674 42.4303 9.09113 42.4514 8.99547L43.4596 2.73138C43.4998 2.48403 43.4551 2.23046 43.3326 2.01128C43.2102 1.7921 43.017 1.61999 42.7841 1.52252L42.4313 1.36267C40.8405 0.84729 39.2031 0.485939 37.542 0.283685C35.9145 0.0724694 34.2736 -0.0210229 32.6325 0.00394883C30.9948 0.0252362 29.3594 0.13195 27.7331 0.323647C26.9165 0.433544 26.0999 0.563421 25.2934 0.753243C24.4134 0.93714 23.5552 1.21171 22.7328 1.57247H22.6522C22.4434 1.66445 22.2674 1.81652 22.1469 2.00894C22.0265 2.20135 21.9672 2.42522 21.9768 2.65145C22.0473 4.21997 22.1481 5.7885 22.1784 7.35702C22.1784 8.35608 22.2389 9.27521 22.1784 10.2343H19.648C17.9155 10.2315 16.2265 10.7723 14.823 11.7791C13.4196 12.7859 12.3737 14.2071 11.8352 15.839L10.0811 21.124H1.00811C0.740741 21.124 0.484325 21.2293 0.295268 21.4167C0.106211 21.604 0 21.8581 0 22.1231C0 22.3881 0.106211 22.6422 0.295268 22.8295C0.484325 23.0169 0.740741 23.1222 1.00811 23.1222H9.44598L9.325 23.5118L3.83081 28.8068ZM14.7083 16.8181C15.046 15.7843 15.7065 14.8837 16.5944 14.2462C17.4823 13.6087 18.5516 13.2673 19.648 13.2714H45.6169C46.7142 13.2696 47.7838 13.613 48.6715 14.2521C49.5593 14.8913 50.2193 15.7933 50.5566 16.8281L52.472 22.4927L52.5426 22.6326L52.4317 22.7325C50.787 24.1312 48.6914 24.9002 46.5242 24.9005H18.7307C16.5669 24.8979 14.4753 24.129 12.8332 22.7325L12.7627 22.6726L14.7083 16.8181Z" fill="black"/>
<path d="M8.85119 37.4786C8.85318 38.3437 9.11384 39.1887 9.60024 39.907C10.0866 40.6253 10.7769 41.1846 11.5839 41.5143C12.3909 41.8439 13.2784 41.9292 14.1343 41.7592C14.9902 41.5892 15.776 41.1717 16.3925 40.5593C17.009 39.9469 17.4285 39.1672 17.5981 38.3186C17.7677 37.4701 17.6796 36.5908 17.3451 35.7918C17.0106 34.9928 16.4447 34.3099 15.7188 33.8295C14.9929 33.3492 14.1396 33.0928 13.2667 33.0928C12.0947 33.0954 10.9716 33.5587 10.1439 34.3809C9.31607 35.2031 8.85119 36.3171 8.85119 37.4786ZM15.666 37.4786C15.664 37.9485 15.5216 38.4072 15.2568 38.7969C14.9919 39.1866 14.6165 39.4898 14.1779 39.6682C13.7393 39.8467 13.2572 39.8923 12.7925 39.7995C12.3277 39.7066 11.9012 39.4794 11.5666 39.1464C11.2321 38.8135 11.0046 38.3898 10.9128 37.9288C10.821 37.4679 10.8691 36.9903 11.051 36.5564C11.2329 36.1225 11.5404 35.7517 11.9348 35.4909C12.3291 35.2301 12.7926 35.0909 13.2667 35.0909C13.904 35.0935 14.5142 35.3462 14.9639 35.7938C15.4136 36.2413 15.666 36.8471 15.666 37.4786Z" fill="black"/>
<path d="M47.5827 37.4786C47.5847 38.3437 47.8454 39.1887 48.3318 39.907C48.8182 40.6253 49.5085 41.1846 50.3155 41.5143C51.1225 41.8439 52.01 41.9292 52.8658 41.7592C53.7217 41.5892 54.5075 41.1717 55.124 40.5593C55.7405 39.9469 56.1601 39.1672 56.3296 38.3186C56.4992 37.4701 56.4112 36.5908 56.0767 35.7918C55.7422 34.9928 55.1762 34.3099 54.4503 33.8295C53.7244 33.3492 52.8711 33.0928 51.9982 33.0928C50.8262 33.0954 49.7032 33.5587 48.8754 34.3809C48.0476 35.2031 47.5827 36.3171 47.5827 37.4786ZM54.3975 37.4786C54.3955 37.9485 54.2531 38.4072 53.9883 38.7969C53.7234 39.1866 53.348 39.4898 52.9094 39.6682C52.4709 39.8467 51.9888 39.8923 51.524 39.7995C51.0593 39.7066 50.6327 39.4794 50.2981 39.1464C49.9636 38.8135 49.7361 38.3898 49.6443 37.9288C49.5526 37.4679 49.6007 36.9903 49.7826 36.5564C49.9644 36.1225 50.272 35.7517 50.6663 35.4909C51.0606 35.2301 51.5241 35.0909 51.9982 35.0909C52.6355 35.0935 53.2457 35.3462 53.6954 35.7938C54.1451 36.2413 54.3975 36.8471 54.3975 37.4786Z" fill="black"/>
</svg>
