<?xml version="1.0" encoding="UTF-8"?>
<svg xmlns="http://www.w3.org/2000/svg" xmlns:xlink="http://www.w3.org/1999/xlink" width="540.991pt" height="348.237pt" viewBox="0 0 540.991 348.237" version="1.1">
<defs>
<clipPath id="clip1">
  <path d="M 73 213 L 208 213 L 208 348.238281 L 73 348.238281 Z M 73 213 "/>
</clipPath>
<clipPath id="clip2">
  <path d="M 451 213 L 540.992188 213 L 540.992188 348 L 451 348 Z M 451 213 "/>
</clipPath>
<clipPath id="clip3">
  <path d="M 0 216 L 68 216 L 68 348.238281 L 0 348.238281 Z M 0 216 "/>
</clipPath>
</defs>
<g id="surface1">
<path style=" stroke:none;fill-rule:nonzero;fill:rgb(100%,0%,0%);fill-opacity:1;" d="M 66.871094 79.878906 C 68.285156 78.714844 90.703125 66.675781 92.03125 89.09375 C 93.359375 111.515625 66.871094 118.324219 66.871094 118.324219 Z M 67.203125 192.222656 L 67.203125 161 C 67.203125 161 95.183594 154.109375 110.046875 141.238281 C 124.914062 128.371094 142.039062 113.492188 139.503906 75.613281 C 136.964844 37.730469 103.59375 29.535156 71.195312 35.976562 C 38.800781 42.414062 19.707031 57.636719 19.707031 57.636719 L 19.707031 79.628906 L 19.957031 192.222656 Z M 67.203125 192.222656 "/>
<path style=" stroke:none;fill-rule:nonzero;fill:rgb(100%,0%,0%);fill-opacity:1;" d="M 199.417969 77.933594 L 210.929688 129.066406 L 187.316406 129.066406 Z M 168.777344 192.222656 L 175.800781 168.683594 L 220.296875 169.074219 L 227.324219 192.222656 L 278.652344 192.222656 C 278.652344 192.222656 229.277344 26.21875 226.738281 18.605469 C 224.203125 10.996094 222.054688 5.53125 222.054688 5.53125 C 222.054688 5.53125 206.441406 6.703125 193.953125 9.433594 C 181.460938 12.164062 175.605469 14.3125 175.605469 14.3125 L 118.230469 192.222656 Z M 168.777344 192.222656 "/>
<path style=" stroke:none;fill-rule:nonzero;fill:rgb(100%,0%,0%);fill-opacity:1;" d="M 359.449219 76.667969 C 357.855469 104.003906 332.710938 101.746094 332.710938 101.746094 L 332.710938 51.785156 C 355.742188 52.367188 360.035156 66.617188 359.449219 76.667969 M 408.238281 93.15625 C 418.777344 34.21875 382.511719 10.796875 339.152344 2.992188 C 329.394531 1.238281 317.488281 -0.714844 284.3125 0.261719 L 284.703125 192.300781 L 333.492188 192.300781 L 333.492188 147.996094 C 333.492188 147.996094 397.699219 152.097656 408.238281 93.15625 "/>
<path style=" stroke:none;fill-rule:nonzero;fill:rgb(100%,0%,0%);fill-opacity:1;" d="M 461.324219 96.148438 L 471.664062 136.679688 L 449.027344 136.679688 Z M 429.511719 192.296875 L 437.316406 173.171875 L 481.8125 173.171875 L 485.914062 192.296875 L 535.679688 192.296875 L 488.253906 47.292969 L 474.984375 39.878906 C 461.710938 32.460938 443.953125 28.949219 443.953125 28.949219 L 381.890625 192.296875 Z M 429.511719 192.296875 "/>
<g clip-path="url(#clip1)" clip-rule="nonzero">
<path style=" stroke:none;fill-rule:nonzero;fill:rgb(100%,0%,0%);fill-opacity:1;" d="M 141.636719 310.878906 C 129.632812 312.082031 118.105469 304.15625 115.464844 284.703125 C 112.820312 265.253906 122.976562 251.9375 140.207031 250.363281 C 144.675781 249.957031 165.890625 253.007812 165.890625 278.703125 C 165.890625 304.394531 153.644531 309.679688 141.636719 310.878906 M 143.078125 213.382812 C 102.496094 211.941406 73.4375 240.277344 73.679688 282.542969 C 73.917969 324.808594 106.820312 348.234375 140.917969 348.234375 C 177.660156 348.234375 217.28125 317.84375 205.035156 264.53125 C 192.789062 211.222656 143.078125 213.382812 143.078125 213.382812 "/>
</g>
<path style=" stroke:none;fill-rule:nonzero;fill:rgb(100%,0%,0%);fill-opacity:1;" d="M 281.878906 261.574219 L 255.207031 261.574219 L 254.742188 216.503906 L 213.921875 216.503906 L 213.921875 344.980469 L 255.589844 344.980469 L 255.589844 298.699219 L 281.878906 298.585938 L 281.878906 344.980469 L 323.421875 344.980469 L 323.421875 216.503906 L 281.878906 216.503906 Z M 281.878906 261.574219 "/>
<path style=" stroke:none;fill-rule:nonzero;fill:rgb(100%,0%,0%);fill-opacity:1;" d="M 402.820312 273.132812 L 370.574219 216.761719 L 336.808594 216.800781 L 336.808594 344.980469 L 376.042969 345.039062 L 376.082031 291.167969 L 410.238281 345.039062 L 441.820312 345.039062 L 441.976562 216.839844 L 403.015625 216.917969 Z M 402.820312 273.132812 "/>
<g clip-path="url(#clip2)" clip-rule="nonzero">
<path style=" stroke:none;fill-rule:nonzero;fill:rgb(100%,0%,0%);fill-opacity:1;" d="M 540.863281 305.789062 C 539.53125 288.992188 535.226562 280.222656 519.925781 270.019531 C 518.238281 268.898438 506.574219 264.117188 501.582031 261.589844 C 496.59375 259.058594 490.199219 256.878906 492.308594 250.765625 C 494.414062 244.652344 507.414062 247.042969 512.40625 248.515625 C 517.394531 249.992188 531.25 255.433594 534.300781 258.335938 L 534.339844 222.890625 C 534.339844 222.890625 517.007812 213.480469 497.722656 213.285156 C 478.4375 213.089844 462.824219 222.65625 457.320312 232.492188 C 451.8125 242.328125 443.320312 269.914062 468.710938 288.050781 C 473.15625 291.226562 482.527344 295.515625 489.675781 298.851562 C 496.820312 302.183594 500.457031 304.664062 500.457031 308.25 C 500.457031 311.832031 497.015625 314.785156 492.308594 314.785156 C 487.597656 314.785156 473.542969 313.097656 463.636719 307.757812 C 453.726562 302.414062 451.902344 300.660156 451.902344 300.660156 L 452.253906 337.339844 C 452.253906 337.339844 464.199219 345.421875 482.890625 346.96875 C 501.582031 348.515625 516.410156 345.632812 524.5625 339.238281 C 532.714844 332.84375 542.199219 322.582031 540.863281 305.789062 "/>
</g>
<g clip-path="url(#clip3)" clip-rule="nonzero">
<path style=" stroke:none;fill-rule:nonzero;fill:rgb(100%,0%,0%);fill-opacity:1;" d="M 67.195312 284.046875 C 67.128906 273.371094 67.058594 216.847656 67.058594 216.847656 L 25.867188 216.847656 C 25.867188 216.847656 25.867188 280.078125 25.933594 299.921875 C 26.003906 319.765625 0 309.707031 0 309.707031 L 0 345.015625 L 6.980469 346.65625 C 13.519531 348.195312 20.625 348.628906 27.546875 347.851562 C 27.582031 347.847656 27.613281 347.847656 27.648438 347.847656 C 69.371094 345.65625 66.945312 300.023438 66.945312 300.023438 L 66.941406 300.023438 C 67.328125 293.605469 67.21875 287.859375 67.195312 284.046875 "/>
</g>
</g>
</svg>
